<svg width="33" height="33" viewBox="0 0 33 33" fill="none" xmlns="http://www.w3.org/2000/svg">
<path d="M9.08932 24.1533C8.46534 23.5294 8.46534 22.5177 9.08932 21.8937L21.8937 9.08929C22.5177 8.46531 23.5294 8.46531 24.1533 9.08929C24.7773 9.71326 24.7773 10.7249 24.1533 11.3489L11.3489 24.1533C10.7249 24.7773 9.71329 24.7773 9.08932 24.1533Z" fill="white"/>
<path d="M9.08934 9.08929C9.71331 8.46531 10.725 8.46531 11.3489 9.08929L24.1534 21.8937C24.7773 22.5177 24.7773 23.5294 24.1534 24.1533C23.5294 24.7773 22.5177 24.7773 21.8938 24.1533L9.08934 11.3489C8.46536 10.7249 8.46536 9.71326 9.08934 9.08929Z" fill="white"/>
</svg>
