<svg width="101" height="100" viewBox="0 0 101 100" fill="none" xmlns="http://www.w3.org/2000/svg">
<path d="M77.7657 62.313C76.7891 60.5396 78.0313 58.7349 80.1563 56.5005C83.5235 52.9536 87.1875 44.7271 83.7813 36.3755C83.8047 36.3286 83.1094 34.9224 83.1328 34.8755L81.7344 34.8052C81.2891 34.7427 65.9063 34.7114 50.5078 34.7114C35.1094 34.7114 19.7266 34.7427 19.2813 34.8052C19.2813 34.8052 17.211 36.3286 17.2266 36.3755C13.8282 44.7271 17.4844 52.9536 20.8516 56.5005C22.9688 58.7349 24.211 60.5396 23.2422 62.313C22.2969 64.0396 19.4844 64.2896 19.4844 64.2896C19.4844 64.2896 20.1328 66.0552 21.6953 67.0083C23.1407 67.8911 24.9219 68.0942 26.1485 68.1255C26.1485 68.1255 30.9532 74.7739 43.5157 74.7739H57.5C70.0625 74.7739 74.8672 68.1255 74.8672 68.1255C76.0938 68.0942 77.875 67.8911 79.3203 67.0083C80.8828 66.0552 81.5313 64.2896 81.5313 64.2896C81.5313 64.2896 78.711 64.0317 77.7657 62.313Z" fill="#543930"/>
<path d="M50.4922 74.7661V67.3911L72.8125 65.6255L74.8438 68.1255C74.8438 68.1255 70.0391 74.7739 57.4766 74.7739L50.4922 74.7661Z" fill="url(#paint0_radial_8_129)"/>
<path d="M74.797 64.8989C71.4532 59.8208 78.8673 57.9224 78.8673 57.9224L78.8751 57.9302C77.586 59.5317 77.0001 60.9302 77.7579 62.313C78.7032 64.0396 81.5157 64.2896 81.5157 64.2896C81.5157 64.2896 77.6798 67.6958 74.797 64.8989Z" fill="url(#paint1_radial_8_129)"/>
<path d="M83.7969 36.3755C87.1172 44.4614 83.625 52.7896 80.3516 56.3052C79.9063 56.7896 78 58.6567 77.5625 60.1489C77.5625 60.1489 70.1094 49.7505 67.8828 43.6411C67.4375 42.4067 67.0234 41.1411 66.9688 39.8286C66.9297 38.8442 67.0781 37.6724 67.6484 36.8364C68.3437 35.813 83.3984 35.5083 83.3984 35.5083C83.3984 35.5161 83.7969 36.3755 83.7969 36.3755Z" fill="url(#paint2_radial_8_129)"/>
<path d="M17.2188 36.3755C13.8985 44.4614 17.3907 52.7896 20.6641 56.3052C21.1172 56.7896 23.0157 58.6567 23.4532 60.1489C23.4532 60.1489 30.9063 49.7505 33.1329 43.6411C33.586 42.4067 33.9922 41.1411 34.0469 39.8286C34.086 38.8442 33.9376 37.6724 33.3672 36.8364C32.6719 35.813 31.8594 36.0864 30.6797 36.0864C28.4297 36.0864 18.5782 35.5083 17.8126 35.5083C17.8204 35.5161 17.2188 36.3755 17.2188 36.3755Z" fill="url(#paint3_radial_8_129)"/>
<path d="M50.5234 74.7661V67.3911L28.2031 65.6255L26.1719 68.1255C26.1719 68.1255 30.9766 74.7739 43.5391 74.7739L50.5234 74.7661Z" fill="url(#paint4_radial_8_129)"/>
<path d="M26.2187 64.8989C29.5625 59.8208 22.1484 57.9224 22.1484 57.9224L22.1406 57.9302C23.4297 59.5317 24.0156 60.9302 23.2578 62.313C22.3125 64.0396 19.5 64.2896 19.5 64.2896C19.5 64.2896 23.3359 67.6958 26.2187 64.8989Z" fill="url(#paint5_radial_8_129)"/>
<path d="M58.1406 87.5317V69.7271H42.8516V87.5317H58.1406ZM71.8516 39.3286H29.1484C24.5469 39.3286 20.7812 43.3364 20.7812 48.2427C20.7812 53.1489 24.5469 57.1567 29.1484 57.1567H71.8438C76.4453 57.1567 80.2109 53.1411 80.2109 48.2427C80.2188 43.3442 76.4531 39.3286 71.8516 39.3286Z" fill="#E59600"/>
<path d="M50.5 8.57861C36.9063 8.57861 24.3125 23.1177 24.3125 44.0474C24.3125 64.8599 37.2891 75.1489 50.5 75.1489C63.7109 75.1489 76.6875 64.8599 76.6875 44.0474C76.6875 23.1177 64.0938 8.57861 50.5 8.57861Z" fill="#FFCA28"/>
<path d="M43.3124 38.8442C42.5859 37.8833 40.914 36.4927 37.664 36.4927C34.414 36.4927 32.7343 37.8911 32.0156 38.8442C31.6952 39.2661 31.7734 39.7583 31.9999 40.0552C32.2031 40.3286 32.8124 40.5864 33.4843 40.3599C34.1562 40.1333 35.4687 39.4536 37.664 39.438C39.8593 39.4536 41.1718 40.1333 41.8437 40.3599C42.5156 40.5864 43.1249 40.3364 43.3281 40.0552C43.5468 39.7661 43.6327 39.2739 43.3124 38.8442ZM68.9921 38.8442C68.2656 37.8833 66.5937 36.4927 63.3437 36.4927C60.0937 36.4927 58.414 37.8911 57.6952 38.8442C57.3749 39.2661 57.4531 39.7583 57.6796 40.0552C57.8827 40.3286 58.4921 40.5864 59.164 40.3599C59.8359 40.1333 61.1484 39.4536 63.3437 39.438C65.539 39.4536 66.8515 40.1333 67.5234 40.3599C68.1952 40.5864 68.8046 40.3364 69.0077 40.0552C69.2265 39.7661 69.3124 39.2739 68.9921 38.8442Z" fill="#6D4C41"/>
<path d="M37.6563 49.8599C39.7834 49.8599 41.5078 48.076 41.5078 45.8755C41.5078 43.675 39.7834 41.8911 37.6563 41.8911C35.5291 41.8911 33.8047 43.675 33.8047 45.8755C33.8047 48.076 35.5291 49.8599 37.6563 49.8599Z" fill="#404040"/>
<path d="M63.3438 49.8599C65.4709 49.8599 67.1953 48.076 67.1953 45.8755C67.1953 43.675 65.4709 41.8911 63.3438 41.8911C61.2166 41.8911 59.4922 43.675 59.4922 45.8755C59.4922 48.076 61.2166 49.8599 63.3438 49.8599Z" fill="#404040"/>
<path d="M57.0782 59.4146C54.5938 60.8912 46.4297 60.8912 43.9454 59.4146C42.5157 58.563 41.0547 59.8677 41.6485 61.1646C42.2344 62.438 46.6797 65.399 50.5313 65.399C54.3829 65.399 58.7735 62.438 59.3594 61.1646C59.9454 59.8677 58.5079 58.563 57.0782 59.4146Z" fill="#795548"/>
<path d="M53.5156 53.0942C53.4297 53.063 53.3516 53.0396 53.2656 53.0317H47.7344C47.6484 53.0396 47.5625 53.063 47.4844 53.0942C46.9844 53.2974 46.7109 53.813 46.9453 54.3677C47.1797 54.9224 48.2813 56.4692 50.5 56.4692C52.7188 56.4692 53.8203 54.9146 54.0547 54.3677C54.2891 53.8208 54.0156 53.2974 53.5156 53.0942Z" fill="#E59600"/>
<path d="M78.0548 18.3207C77.4376 14.6332 67.2344 8.07074 63.4141 6.8598C53.0704 3.58637 46.3438 4.91449 42.7344 6.88324C41.9844 7.28949 37.1329 9.9848 33.7423 8.05512C31.6173 6.84418 25.5157 16.5239 22.4454 18.3754C18.8594 20.5395 19.1719 24.477 19.7188 26.0082C17.7501 27.6801 15.2735 31.2348 16.9688 35.852C18.2501 39.3286 23.3516 40.9301 23.3516 40.9301C22.8673 49.3207 25.1329 53.3911 25.1329 53.3911C25.1329 53.3911 28.7969 38.977 28.4923 36.7739C28.4923 36.7739 34.5548 35.5707 41.4376 31.6332C46.086 28.9692 49.2657 25.852 54.4923 24.6723C62.4454 22.8832 64.2188 28.6411 64.2188 28.6411C64.2188 28.6411 71.5782 27.227 73.7969 37.4457C74.711 41.6489 75.3048 48.6176 75.8048 52.8911C75.7579 52.5161 78.336 47.9457 78.8204 43.2582C78.9454 42.0473 82.211 40.4457 83.6173 35.2426C85.4923 28.3051 83.4297 20.7895 78.0548 18.3207Z" fill="#543930"/>
<path d="M83.625 35.2349C82.4531 39.5552 80.0078 41.3911 79.1328 42.5864C77.9297 35.2661 78.1172 28.313 69.2031 20.0786C69.2031 20.0786 70.9922 19.6958 71.8672 18.1021C72.5469 16.8599 72.2891 15.313 72.2891 15.313C72.5859 15.3286 72.8906 15.3599 73.2031 15.3989C74.7344 15.6802 76.2969 16.4302 77.7266 17.3911C77.8984 17.7192 78.0078 18.0317 78.0547 18.3208C83.4297 20.7817 85.5 28.2974 83.625 35.2349Z" fill="url(#paint6_radial_8_129)"/>
<path d="M19.5391 26.1646C17.6876 27.8052 15.1954 31.4692 17.0313 36.0161C18.4141 39.4458 23.3516 40.9302 23.3516 40.9302C23.3516 40.9458 24.336 41.2427 24.8438 41.2427L26.0001 24.1333C23.6329 24.1333 21.3594 24.8442 19.8907 25.8677C19.9141 25.8911 19.5313 26.1411 19.5391 26.1646Z" fill="url(#paint7_radial_8_129)"/>
<path d="M26.039 24.1411V24.1021C23.6718 24.1021 21.4062 24.813 19.9296 25.8286C19.9296 25.8521 19.8124 25.938 19.7187 26.0083V26.0005C19.7265 25.9927 19.7421 25.9849 19.7499 25.9771C19.203 24.4458 18.8827 20.5083 22.4765 18.3442C22.8202 18.1333 23.203 17.8286 23.6171 17.4458C24.5702 17.0552 25.5859 16.8286 26.5234 16.7349C26.7968 16.7114 27.2968 16.6724 27.4452 16.6724L31.203 17.1333L26.039 24.1411Z" fill="url(#paint8_radial_8_129)"/>
<path d="M91.6484 41.6411C90.6797 41.6411 89.8906 42.3911 89.8906 43.313V50.5005C89.8906 51.4224 90.6797 52.1724 91.6484 52.1724C92.6172 52.1724 93.4062 51.4224 93.4062 50.5005V43.313C93.4062 42.3911 92.6172 41.6411 91.6484 41.6411ZM88.1328 41.6411C87.1641 41.6411 86.375 42.3911 86.375 43.313V50.5005C86.375 51.4224 87.1641 52.1724 88.1328 52.1724C89.1016 52.1724 89.8906 51.4224 89.8906 50.5005V43.313C89.8906 42.3911 89.1016 41.6411 88.1328 41.6411Z" fill="#E8AD00"/>
<path d="M89.8906 41.6411C88.9219 41.6411 88.1328 42.3911 88.1328 43.313V52.0552C88.1328 52.977 88.9219 53.727 89.8906 53.727C90.8594 53.727 91.6484 52.977 91.6484 52.0552V43.313C91.6484 42.3911 90.8594 41.6411 89.8906 41.6411Z" fill="#FFCA28"/>
<path d="M89.8906 42.7349C91.0815 42.7349 92.0469 41.8149 92.0469 40.6802C92.0469 39.5454 91.0815 38.6255 89.8906 38.6255C88.6998 38.6255 87.7344 39.5454 87.7344 40.6802C87.7344 41.8149 88.6998 42.7349 89.8906 42.7349Z" fill="#FFCA28"/>
<path d="M89.8906 40.6567C89.4609 40.6567 89.1094 40.3052 89.1094 39.8755V10.188C89.1094 9.7583 89.4609 9.40674 89.8906 9.40674C90.3203 9.40674 90.6719 9.7583 90.6719 10.188V39.8755C90.6719 40.3052 90.3203 40.6567 89.8906 40.6567Z" fill="#504F4F"/>
<path d="M90.6719 9.37549C66.5859 3.3208 50.0469 3.12549 50.0469 3.12549C50.0469 3.12549 33.5078 3.3208 9.42188 9.37549V9.97705C9.42188 11.0161 10.1016 11.9302 11.0938 12.2192C14 13.0786 20.0547 14.8286 24.0078 15.6255C24.0078 15.6255 23.1406 16.9614 22.4453 18.3755C22.4453 18.3755 30.2188 23.0005 50.0469 25.0005C69.875 23.0005 78.0547 18.3208 78.0547 18.3208C77.3672 16.9067 76.5078 15.6255 76.5078 15.6255C80.0234 15.0474 86.1328 13.1724 89.0391 12.2505C90.0156 11.938 90.6719 11.0396 90.6719 10.0161V9.37549Z" fill="url(#paint9_linear_8_129)"/>
<path d="M50.0469 3.12549C50.0469 3.12549 33.5078 3.3208 9.42188 9.37549C9.42188 9.37549 37.0859 16.9302 50.0469 16.7036C63.0078 16.9302 90.6719 9.37549 90.6719 9.37549C66.5781 3.3208 50.0469 3.12549 50.0469 3.12549Z" fill="url(#paint10_linear_8_129)"/>
<path opacity="0.4" d="M90.6719 9.37549C66.5859 3.3208 50.0469 3.12549 50.0469 3.12549C50.0469 3.12549 33.5078 3.3208 9.42188 9.37549V9.97705C9.42188 11.0161 10.1016 11.9302 11.0938 12.2192C14 13.0786 20.0547 14.8286 24.0078 15.6255C24.0078 15.6255 23.1406 16.9614 22.4453 18.3755C22.4453 18.3755 30.2188 23.0005 50.0469 25.0005C69.875 23.0005 78.0547 18.3208 78.0547 18.3208C77.3672 16.9067 76.5078 15.6255 76.5078 15.6255C80.0234 15.0474 86.1328 13.1724 89.0391 12.2505C90.0156 11.938 90.6719 11.0396 90.6719 10.0161V9.37549Z" fill="url(#paint11_linear_8_129)"/>
<path d="M89.9531 94.5239C89.9531 83.1099 72.9609 77.6958 58.1406 76.477L51.4219 85.0942C51.2031 85.3755 50.8594 85.5474 50.5 85.5474C50.1406 85.5474 49.7969 85.3833 49.5781 85.0942L42.8438 76.4614C34.6016 77.0942 11.0391 80.1724 11.0391 94.5239V96.8755H89.9453L89.9531 94.5239Z" fill="#212121"/>
<path d="M89.9531 94.5239C89.9531 83.1099 72.9609 77.6958 58.1406 76.477L51.4219 85.0942C51.2031 85.3755 50.8594 85.5474 50.5 85.5474C50.1406 85.5474 49.7969 85.3833 49.5781 85.0942L42.8438 76.4614C34.6016 77.0942 11.0391 80.1724 11.0391 94.5239V96.8755H89.9453L89.9531 94.5239Z" fill="url(#paint12_radial_8_129)"/>
<defs>
<radialGradient id="paint0_radial_8_129" cx="0" cy="0" r="1" gradientUnits="userSpaceOnUse" gradientTransform="translate(61.893 64.1085) scale(18.2961 8.98704)">
<stop offset="0.728" stop-color="#6D4C41" stop-opacity="0"/>
<stop offset="1" stop-color="#6D4C41"/>
</radialGradient>
<radialGradient id="paint1_radial_8_129" cx="0" cy="0" r="1" gradientUnits="userSpaceOnUse" gradientTransform="translate(79.9151 61.3867) rotate(154.924) scale(5.40676 4.01104)">
<stop offset="0.663" stop-color="#6D4C41"/>
<stop offset="1" stop-color="#6D4C41" stop-opacity="0"/>
</radialGradient>
<radialGradient id="paint2_radial_8_129" cx="0" cy="0" r="1" gradientUnits="userSpaceOnUse" gradientTransform="translate(65.9025 46.094) rotate(-94.2783) scale(23.7489 19.7932)">
<stop offset="0.725" stop-color="#6D4C41" stop-opacity="0"/>
<stop offset="1" stop-color="#6D4C41"/>
</radialGradient>
<radialGradient id="paint3_radial_8_129" cx="0" cy="0" r="1" gradientUnits="userSpaceOnUse" gradientTransform="translate(35.1157 46.0936) rotate(-85.7217) scale(23.7489 19.7932)">
<stop offset="0.725" stop-color="#6D4C41" stop-opacity="0"/>
<stop offset="1" stop-color="#6D4C41"/>
</radialGradient>
<radialGradient id="paint4_radial_8_129" cx="0" cy="0" r="1" gradientUnits="userSpaceOnUse" gradientTransform="translate(39.1242 64.1085) rotate(180) scale(18.2961 8.98704)">
<stop offset="0.728" stop-color="#6D4C41" stop-opacity="0"/>
<stop offset="1" stop-color="#6D4C41"/>
</radialGradient>
<radialGradient id="paint5_radial_8_129" cx="0" cy="0" r="1" gradientUnits="userSpaceOnUse" gradientTransform="translate(21.1043 61.3872) rotate(25.0761) scale(5.40676 4.01104)">
<stop offset="0.663" stop-color="#6D4C41"/>
<stop offset="1" stop-color="#6D4C41" stop-opacity="0"/>
</radialGradient>
<radialGradient id="paint6_radial_8_129" cx="0" cy="0" r="1" gradientUnits="userSpaceOnUse" gradientTransform="translate(65.2428 33.9549) rotate(72.0851) scale(26.4652 19.6366)">
<stop offset="0.699" stop-color="#6D4C41" stop-opacity="0"/>
<stop offset="1" stop-color="#6D4C41"/>
</radialGradient>
<radialGradient id="paint7_radial_8_129" cx="0" cy="0" r="1" gradientUnits="userSpaceOnUse" gradientTransform="translate(30.6061 33.828) rotate(7.83355) scale(13.1926 18.5378)">
<stop offset="0.598" stop-color="#6D4C41" stop-opacity="0"/>
<stop offset="1" stop-color="#6D4C41"/>
</radialGradient>
<radialGradient id="paint8_radial_8_129" cx="0" cy="0" r="1" gradientUnits="userSpaceOnUse" gradientTransform="translate(29.4725 25.1752) rotate(-164.942) scale(10.1105 9.46162)">
<stop offset="0.66" stop-color="#6D4C41" stop-opacity="0"/>
<stop offset="1" stop-color="#6D4C41"/>
</radialGradient>
<linearGradient id="paint9_linear_8_129" x1="50.0445" y1="-0.259668" x2="50.0445" y2="22.1153" gradientUnits="userSpaceOnUse">
<stop offset="0.003" stop-color="#424242"/>
<stop offset="0.472" stop-color="#353535"/>
<stop offset="1" stop-color="#212121"/>
</linearGradient>
<linearGradient id="paint10_linear_8_129" x1="50.0445" y1="-0.12998" x2="50.0445" y2="24.0888" gradientUnits="userSpaceOnUse">
<stop offset="0.003" stop-color="#616161"/>
<stop offset="0.324" stop-color="#505050"/>
<stop offset="0.955" stop-color="#242424"/>
<stop offset="1" stop-color="#212121"/>
</linearGradient>
<linearGradient id="paint11_linear_8_129" x1="10.8977" y1="14.0622" x2="89.6695" y2="14.0622" gradientUnits="userSpaceOnUse">
<stop offset="0.001" stop-color="#BFBEBE"/>
<stop offset="0.3" stop-color="#212121" stop-opacity="0"/>
<stop offset="0.7" stop-color="#212121" stop-opacity="0"/>
<stop offset="1" stop-color="#BFBEBE"/>
</linearGradient>
<radialGradient id="paint12_radial_8_129" cx="0" cy="0" r="1" gradientUnits="userSpaceOnUse" gradientTransform="translate(50.5 95.7842) scale(42.318 22.2042)">
<stop offset="0.598" stop-color="#212121"/>
<stop offset="1" stop-color="#616161"/>
</radialGradient>
</defs>
</svg>
